<svg width="24" height="24" viewBox="0 0 24 24" fill="none" xmlns="http://www.w3.org/2000/svg" style="display: none;">
    <defs>
        <g id="image">
            <path
                d="M19.75 2H4.25C3.01 2 2 3.01 2 4.25V19.75C2 20.99 3.01 22 4.25 22H19.75C20.99 22 22 20.99 22 19.75V4.25C22 3.01 20.99 2 19.75 2ZM4.25 3.5H19.75C20.163 3.5 20.5 3.837 20.5 4.25V13.926L16.642 10.068C16.502 9.928 16.312 9.848 16.112 9.848H16.109C15.909 9.848 15.716 9.928 15.577 10.072L11.26 14.456L9.447 12.65C9.307 12.51 9.117 12.43 8.917 12.43C8.724 12.4 8.522 12.51 8.382 12.657L3.5 17.642V4.25C3.5 3.837 3.837 3.5 4.25 3.5ZM3.506 19.78L8.924 14.246L15.206 20.5H4.25C3.848 20.5 3.523 20.178 3.506 19.78ZM19.75 20.5H17.33L12.323 15.513L16.115 11.663L20.5 16.047V19.75C20.5 20.163 20.163 20.5 19.75 20.5Z" />
            <path
                d="M8.86805 9.85097C9.71967 9.85097 10.41 9.16059 10.41 8.30897C10.41 7.45734 9.71967 6.76697 8.86805 6.76697C8.01643 6.76697 7.32605 7.45734 7.32605 8.30897C7.32605 9.16059 8.01643 9.85097 8.86805 9.85097Z" />
        </g>
        <g id="gif">
            <path
                d="M19 10.5V8.80005H14.6V15.2H16.3V13.2H18.3V11.5H16.3V10.5H19ZM11.7 8.80005H13.4V15.2H11.7V8.80005ZM8.10002 10.4C8.50002 10.4 9.00002 10.6 9.30002 10.9L10.5 9.90005C9.90002 9.20005 9.00002 8.80005 8.10002 8.80005C6.30002 8.80005 4.90002 10.2 4.90002 12C4.90002 13.8 6.30002 15.2 8.10002 15.2C9.10002 15.2 9.90002 14.8 10.5 14.1V11.6H7.70002V12.8H8.90002V13.4C8.70002 13.5 8.40002 13.6 8.10002 13.6C7.20002 13.6 6.50002 12.9 6.50002 12C6.50002 11.2 7.20002 10.4 8.10002 10.4Z" />
            <path
                d="M20.5 2.02002H3.5C2.26 2.02002 1.25 3.02702 1.25 4.26702V19.774C1.25 21.012 2.26 22.02 3.5 22.02H20.5C21.74 22.02 22.75 21.012 22.75 19.774V4.26702C22.75 3.02702 21.74 2.02002 20.5 2.02002ZM21.25 19.774C21.25 20.184 20.914 20.52 20.5 20.52H3.5C3.086 20.52 2.75 20.184 2.75 19.774V4.26702C2.75 3.85502 3.086 3.52002 3.5 3.52002H20.5C20.914 3.52002 21.25 3.85502 21.25 4.26702V19.774Z" />
        </g>
        <path id="poll"
            d="M20.222 9.16003H18.888C18.903 9.07003 18.916 8.97803 18.916 8.88303V6.57003C18.916 5.59003 18.119 4.79303 17.138 4.79303H3.5V3.35803C3.5 2.94403 3.164 2.60803 2.75 2.60803C2.336 2.60803 2 2.94403 2 3.35803V20.83C2 21.245 2.336 21.58 2.75 21.58C3.164 21.58 3.5 21.245 3.5 20.83V19.396H14.056C15.036 19.396 15.834 18.599 15.834 17.619V15.306C15.834 15.211 15.82 15.119 15.806 15.028H20.223C21.203 15.028 22.001 14.23 22.001 13.25V10.94C22.001 9.95703 21.204 9.16003 20.223 9.16003H20.222ZM17.14 6.29303C17.292 6.29303 17.417 6.41703 17.417 6.57003V8.88003C17.417 9.03403 17.292 9.16003 17.139 9.16003H3.5V6.29003H17.14V6.29303ZM14.333 15.307V17.619C14.333 17.772 14.208 17.896 14.055 17.896H3.5V15.028H14.056C14.209 15.028 14.333 15.154 14.333 15.308V15.307ZM20.5 13.25C20.5 13.403 20.375 13.527 20.222 13.527H3.5V10.66H20.222C20.375 10.66 20.5 10.784 20.5 10.937V13.25Z" />
        <g id="emote">
            <path
                d="M12 22.75C6.072 22.75 1.25 17.928 1.25 12C1.25 6.072 6.072 1.25 12 1.25C17.928 1.25 22.75 6.072 22.75 12C22.75 17.928 17.928 22.75 12 22.75ZM12 2.75C6.9 2.75 2.75 6.9 2.75 12C2.75 17.1 6.9 21.25 12 21.25C17.1 21.25 21.25 17.1 21.25 12C21.25 6.9 17.1 2.75 12 2.75Z" />
            <path
                d="M12 17.1151C10.108 17.1151 8.36701 16.1651 7.34401 14.5711C7.12001 14.2231 7.22101 13.7611 7.57001 13.5361C7.91801 13.3101 8.38201 13.4121 8.60601 13.7621C9.35301 14.9241 10.622 15.6171 12.001 15.6171C13.38 15.6171 14.649 14.9241 15.397 13.7631C15.621 13.4131 16.085 13.3131 16.433 13.5381C16.783 13.7621 16.883 14.2261 16.659 14.5741C15.634 16.1681 13.893 17.1191 12.001 17.1191L12 17.1151Z" />
            <path
                d="M14.738 10.936C15.5543 10.936 16.216 10.2743 16.216 9.45798C16.216 8.6417 15.5543 7.97998 14.738 7.97998C13.9217 7.97998 13.26 8.6417 13.26 9.45798C13.26 10.2743 13.9217 10.936 14.738 10.936Z" />
            <path
                d="M9.26206 10.936C10.0783 10.936 10.7401 10.2743 10.7401 9.45798C10.7401 8.6417 10.0783 7.97998 9.26206 7.97998C8.44578 7.97998 7.78406 8.6417 7.78406 9.45798C7.78406 10.2743 8.44578 10.936 9.26206 10.936Z" />
        </g>
        <g id="schedule">
            <path
                d="M18 2.19998H16.7001V1.89998C16.7001 1.49998 16.4001 1.09998 15.9001 1.09998C15.5001 1.09998 15.1 1.39998 15.1 1.89998V2.19998H7.70005V1.89998C7.70005 1.49998 7.40005 1.09998 6.90005 1.09998C6.50005 1.09998 6.10005 1.39998 6.10005 1.89998V2.19998H4.80005C3.40005 2.19998 2.30005 3.29998 2.30005 4.69998V17.8C2.30005 19.2 3.40005 20.3 4.80005 20.3H7.70005C8.10005 20.3 8.50005 20 8.50005 19.5C8.50005 19.1 8.20005 18.7 7.70005 18.7H4.80005C4.20005 18.7 3.80005 18.2 3.80005 17.7V7.89998C3.80005 7.59998 4.20005 7.19998 4.80005 7.19998H18C18.6 7.19998 19 7.59998 19 7.89998V9.69998C19 10.1 19.3 10.5 19.8 10.5C20.2 10.5 20.6 10.2 20.6 9.69998V4.69998C20.5 3.29998 19.4 2.19998 18 2.19998ZM19 5.89998C18.7 5.79998 18.3 5.69998 18 5.69998H4.80005C4.40005 5.69998 4.10005 5.79998 3.80005 5.89998V4.69998C3.80005 4.09998 4.30005 3.69998 4.80005 3.69998H6.10005V4.19998C6.10005 4.59998 6.40005 4.99998 6.90005 4.99998C7.30005 4.99998 7.70005 4.69998 7.70005 4.19998V3.69998H15.2001V4.19998C15.2001 4.59998 15.5 4.99998 16 4.99998C16.4 4.99998 16.8 4.69998 16.8 4.19998V3.69998H18C18.6 3.69998 19 4.19998 19 4.69998V5.89998Z" />
            <path
                d="M15.5 10.4C12.1 10.4 9.30005 13.2 9.30005 16.6C9.30005 20 12.1 22.8 15.5 22.8C18.9 22.8 21.7001 20 21.7001 16.6C21.7001 13.2 18.9 10.4 15.5 10.4ZM15.5 21.4C12.9 21.4 10.8 19.3 10.8 16.7C10.8 14.1 12.9 12 15.5 12C18.1 12 20.2001 14.1 20.2001 16.7C20.2001 19.2 18.1 21.4 15.5 21.4Z" />
            <path
                d="M18.9 18.7C18.8 18.9 18.5 19.1 18.3 19.1C18.2 19.1 18 19.1 17.9 19L14.8 17V14C14.8 13.6 15.1 13.2 15.6 13.2C16 13.2 16.4 13.5 16.4 14V16.2L18.8 17.7C19 17.9 19.1 18.3 18.9 18.7Z" />
        </g>
        <path id="shine"
            d="M22.772 10.506L17.154 8.31405L14.994 1.81405C14.892 1.50705 14.604 1.30005 14.282 1.30005C13.96 1.30005 13.672 1.50705 13.57 1.81305L11.41 8.31305L5.79 10.505C5.503 10.617 5.313 10.895 5.313 11.205C5.313 11.515 5.503 11.79 5.791 11.903L11.411 14.095L13.571 20.595C13.673 20.901 13.961 21.108 14.283 21.108C14.605 21.108 14.893 20.901 14.995 20.595L17.155 14.095L22.775 11.903C23.062 11.791 23.252 11.513 23.252 11.203C23.252 10.893 23.062 10.618 22.774 10.506H22.772ZM16.282 12.826C16.074 12.906 15.912 13.076 15.842 13.286L14.282 17.9811L12.722 13.288C12.652 13.078 12.492 12.908 12.284 12.826L8.129 11.206L12.283 9.58405C12.491 9.50405 12.653 9.33405 12.723 9.12205L14.283 4.42905L15.843 9.12305C15.913 9.33505 16.073 9.50505 16.281 9.58605L20.436 11.206L16.281 12.828L16.282 12.826ZM6.663 3.81205H4.783V2.05005C4.783 1.63605 4.446 1.30005 4.033 1.30005C3.62 1.30005 3.283 1.63605 3.283 2.05005V3.81205H1.5C1.086 3.81205 0.75 4.14805 0.75 4.56205C0.75 4.97605 1.086 5.31205 1.5 5.31205H3.282V7.07405C3.282 7.48805 3.618 7.82405 4.032 7.82405C4.446 7.82405 4.782 7.48805 4.782 7.07405V5.31205H6.662C7.077 5.31205 7.412 4.97605 7.412 4.56205C7.412 4.14805 7.077 3.81205 6.662 3.81205H6.663ZM9.198 19.434H8.098V18.418C8.098 18.004 7.763 17.668 7.348 17.668C6.933 17.668 6.598 18.004 6.598 18.418V19.434H5.57C5.156 19.434 4.82 19.77 4.82 20.184C4.82 20.598 5.156 20.934 5.57 20.934H6.6V21.9501C6.6 22.3641 6.935 22.7001 7.35 22.7001C7.765 22.7001 8.1 22.3641 8.1 21.9501V20.934H9.198C9.612 20.934 9.948 20.598 9.948 20.184C9.948 19.77 9.612 19.434 9.198 19.434V19.434Z" />
        <path id="home"
            d="M22.58 7.34998L12.475 1.89698C12.178 1.73698 11.821 1.73698 11.525 1.89698L1.42496 7.34998C0.938957 7.61398 0.757957 8.21998 1.01996 8.70598C1.19996 9.04098 1.54496 9.23098 1.89996 9.23098C2.05996 9.23098 2.22396 9.19298 2.37496 9.11098L3.10896 8.71498L4.69896 19.965C4.91496 21.179 6.00896 22.027 7.35896 22.027H16.641C17.991 22.027 19.085 21.179 19.303 19.939L20.891 8.71398L21.628 9.11198C22.113 9.37498 22.72 9.19398 22.982 8.70798C23.245 8.22198 23.062 7.61498 22.578 7.35298L22.58 7.34998ZM12 15.435C10.205 15.435 8.74996 13.98 8.74996 12.185C8.74996 10.39 10.205 8.93498 12 8.93498C13.795 8.93498 15.25 10.39 15.25 12.185C15.25 13.98 13.795 15.435 12 15.435Z" />
        <path id="search"
            d="M21.53 20.47L17.87 16.81C19.195 15.24 20 13.214 20 11C20 6.03 15.97 2 11 2C6.03 2 2 6.03 2 11C2 15.97 6.03 20 11 20C13.215 20 15.24 19.196 16.808 17.87L20.468 21.53C20.615 21.676 20.808 21.75 20.998 21.75C21.188 21.75 21.383 21.677 21.528 21.53C21.823 21.237 21.823 20.763 21.53 20.47V20.47ZM3.5 11C3.5 6.865 6.865 3.5 11 3.5C15.135 3.5 18.5 6.865 18.5 11C18.5 15.135 15.135 18.5 11 18.5C6.865 18.5 3.5 15.135 3.5 11Z" />
        <path id="explore"
            d="M21 7.33704H17.07L17.442 3.06504C17.478 2.65304 17.172 2.29004 16.76 2.25304C16.343 2.22304 15.984 2.52304 15.948 2.93604L15.565 7.33604H9.245L9.615 3.06604C9.652 2.65304 9.345 2.29004 8.935 2.25304C8.515 2.22304 8.158 2.52304 8.122 2.93604L7.74 7.33604H3.782C3.368 7.33604 3.032 7.67304 3.032 8.08604C3.032 8.49904 3.368 8.83604 3.782 8.83604H7.61L7.06 15.163H3C2.586 15.163 2.25 15.499 2.25 15.913C2.25 16.327 2.586 16.663 3 16.663H6.93L6.558 20.935C6.522 21.347 6.828 21.71 7.24 21.747L7.306 21.75C7.691 21.75 8.018 21.455 8.052 21.064L8.435 16.664H14.755L14.385 20.934C14.349 21.347 14.655 21.71 15.067 21.747L15.133 21.75C15.518 21.75 15.845 21.455 15.879 21.064L16.261 16.664H20.218C20.631 16.664 20.968 16.327 20.968 15.914C20.968 15.501 20.631 15.164 20.218 15.164H16.39L16.94 8.83704H21C21.414 8.83704 21.75 8.50104 21.75 8.08704C21.75 7.67304 21.414 7.33704 21 7.33704V7.33704ZM14.885 15.163H8.565L9.115 8.83704H15.435L14.885 15.163Z" />
        <path id="notification"
            d="M21.697 16.4681C21.677 16.4521 19.557 14.8281 19.594 10.4381C19.614 7.90605 18.782 5.65605 17.247 4.10305C15.872 2.71005 14.01 1.94005 12.005 1.93005H11.992C9.98804 1.94005 8.12604 2.71005 6.75004 4.10405C5.21604 5.65705 4.38204 7.90605 4.40404 10.4381C4.44104 14.7681 2.38404 16.4051 2.30204 16.4681C2.04204 16.6611 1.93604 16.9981 2.03704 17.3061C2.13904 17.6141 2.42704 17.8211 2.74904 17.8211H7.66904C7.77104 20.1311 9.66604 21.9811 11.999 21.9811C14.332 21.9811 16.225 20.1311 16.326 17.8211H21.248C21.57 17.8211 21.858 17.6151 21.958 17.3071C22.061 17.0001 21.955 16.6621 21.695 16.4691L21.697 16.4681ZM12 20.4781C10.495 20.4781 9.27004 19.3011 9.17204 17.8201H14.828C14.728 19.3001 13.505 20.4801 12 20.4801V20.4781ZM4.38004 16.3201C5.12004 15.1881 5.92804 13.2921 5.90404 10.4241C5.88604 8.26405 6.54804 6.44205 7.81704 5.15705C8.91004 4.05005 10.397 3.43705 12 3.43005C13.603 3.43805 15.087 4.05005 16.18 5.15805C17.45 6.44305 18.113 8.26405 18.095 10.4251C18.071 13.2931 18.88 15.1901 19.62 16.3211H4.38004V16.3201Z" />
        <path id="dm"
            d="M19.25 3.01794H4.75C3.233 3.01794 2 4.25194 2 5.76994V18.2649C2 19.7829 3.233 21.0179 4.75 21.0179H19.25C20.767 21.0179 22 19.7829 22 18.2649V5.76994C22 4.25194 20.767 3.01794 19.25 3.01794ZM4.75 4.51794H19.25C19.94 4.51794 20.5 5.07794 20.5 5.76794V6.48194L12.45 11.8489C12.177 12.0289 11.824 12.0309 11.55 11.8469L3.5 6.48194V5.76794C3.5 5.07794 4.06 4.51794 4.75 4.51794V4.51794ZM19.25 19.5159H4.75C4.06 19.5159 3.5 18.9559 3.5 18.2659V8.23994L10.74 13.0699C11.123 13.3259 11.562 13.4539 12 13.4539C12.44 13.4539 12.877 13.3259 13.26 13.0709L20.5 8.24094V18.2629C20.5 18.9529 19.94 19.5129 19.25 19.5129V19.5159Z" />
        <path id="bookmark"
            d="M19.9001 23.5C19.7431 23.5 19.5881 23.45 19.4581 23.356L12.0001 17.928L4.5421 23.358C4.3141 23.522 4.0121 23.548 3.7601 23.418C3.5101 23.291 3.3501 23.033 3.3501 22.751V5.59998C3.3501 4.35998 4.3601 3.34998 5.6001 3.34998H18.3981C19.6381 3.34998 20.6481 4.35998 20.6481 5.59998V22.75C20.6481 23.032 20.4901 23.29 20.2381 23.418C20.1321 23.473 20.0151 23.5 19.8981 23.5H19.9001ZM12.0001 16.25C12.1551 16.25 12.3101 16.298 12.4401 16.394L19.1501 21.277V5.59998C19.1501 5.18798 18.8131 4.84998 18.4001 4.84998H5.6001C5.1871 4.84998 4.8501 5.18798 4.8501 5.59998V21.277L11.5601 16.394C11.6901 16.298 11.8451 16.25 12.0001 16.25V16.25Z" />
        <g id="list">
            <path
                d="M19.75 22H4.25C3.01 22 2 20.99 2 19.75V4.25C2 3.01 3.01 2 4.25 2H19.75C20.99 2 22 3.01 22 4.25V19.75C22 20.99 20.99 22 19.75 22ZM4.25 3.5C3.836 3.5 3.5 3.837 3.5 4.25V19.75C3.5 20.163 3.836 20.5 4.25 20.5H19.75C20.164 20.5 20.5 20.163 20.5 19.75V4.25C20.5 3.837 20.164 3.5 19.75 3.5H4.25Z" />
            <path
                d="M17 8.64002H7C6.586 8.64002 6.25 8.30301 6.25 7.89001C6.25 7.47701 6.586 7.14001 7 7.14001H17C17.414 7.14001 17.75 7.47501 17.75 7.89001C17.75 8.30501 17.414 8.64002 17 8.64002ZM17 12.75H7C6.586 12.75 6.25 12.414 6.25 12C6.25 11.586 6.586 11.25 7 11.25H17C17.414 11.25 17.75 11.586 17.75 12C17.75 12.414 17.414 12.75 17 12.75ZM12 16.86H7C6.586 16.86 6.25 16.525 6.25 16.11C6.25 15.695 6.586 15.36 7 15.36H12C12.414 15.36 12.75 15.697 12.75 16.11C12.75 16.523 12.414 16.86 12 16.86Z" />
        </g>
        <path id="profile"
            d="M11.9999 11.816C13.3549 11.816 14.8719 11.666 15.8399 10.56C16.6539 9.63001 16.9179 8.19201 16.6459 6.16801C16.2659 3.34301 14.5289 1.65601 11.9999 1.65601C9.47091 1.65601 7.73391 3.34301 7.35391 6.17001C7.08191 8.19201 7.3459 9.63001 8.1599 10.56C9.1279 11.667 10.6449 11.816 11.9999 11.816V11.816ZM8.83991 6.36801C9.00191 5.16801 9.62691 3.15601 11.9999 3.15601C14.3729 3.15601 14.9979 5.16901 15.1599 6.36801C15.3669 7.91801 15.2169 8.99501 14.7099 9.57301C14.2549 10.093 13.4439 10.316 11.9999 10.316C10.5559 10.316 9.74491 10.093 9.28991 9.57301C8.78291 8.99501 8.63291 7.91701 8.83991 6.36801ZM20.2799 19.236C19.4029 15.71 15.9979 13.246 11.9999 13.246C8.00191 13.246 4.59691 15.71 3.71991 19.236C3.54791 19.928 3.6919 20.636 4.1149 21.176C4.5229 21.696 5.15491 21.996 5.84791 21.996H18.1519C18.8449 21.996 19.4769 21.696 19.8849 21.176C20.3089 20.636 20.4519 19.929 20.2789 19.236H20.2799ZM18.7039 20.252C18.5779 20.412 18.3879 20.498 18.1519 20.498H5.84791C5.61291 20.498 5.42191 20.413 5.29591 20.252C5.15891 20.078 5.11591 19.84 5.17591 19.598C5.88591 16.743 8.69291 14.748 11.9999 14.748C15.3069 14.748 18.1139 16.742 18.8239 19.598C18.8839 19.84 18.8409 20.078 18.7039 20.252V20.252Z" />
        <g id="more">
            <path
                d="M17 13.5C17.8284 13.5 18.5 12.8284 18.5 12C18.5 11.1716 17.8284 10.5 17 10.5C16.1716 10.5 15.5 11.1716 15.5 12C15.5 12.8284 16.1716 13.5 17 13.5Z" />
            <path
                d="M12 13.5C12.8284 13.5 13.5 12.8284 13.5 12C13.5 11.1716 12.8284 10.5 12 10.5C11.1716 10.5 10.5 11.1716 10.5 12C10.5 12.8284 11.1716 13.5 12 13.5Z" />
            <path
                d="M7 13.5C7.82843 13.5 8.5 12.8284 8.5 12C8.5 11.1716 7.82843 10.5 7 10.5C6.17157 10.5 5.5 11.1716 5.5 12C5.5 12.8284 6.17157 13.5 7 13.5Z" />
            <path
                d="M12 22.75C6.072 22.75 1.25 17.928 1.25 12C1.25 6.072 6.072 1.25 12 1.25C17.928 1.25 22.75 6.072 22.75 12C22.75 17.928 17.928 22.75 12 22.75ZM12 2.75C6.9 2.75 2.75 6.9 2.75 12C2.75 17.1 6.9 21.25 12 21.25C17.1 21.25 21.25 17.1 21.25 12C21.25 6.9 17.1 2.75 12 2.75Z" />
        </g>
        <path id="tweet"
            d="M8.8 7.19995H5.6V3.89995C5.6 3.49995 5.3 3.09995 4.8 3.09995C4.3 3.09995 4.1 3.49995 4.1 3.89995V7.19995H0.8C0.4 7.19995 0 7.49995 0 7.99995C0 8.49995 0.3 8.79995 0.8 8.79995H4.1V12.1C4.1 12.5 4.4 12.9 4.9 12.9C5.4 12.9 5.7 12.6 5.7 12.1V8.69995H9C9.4 8.69995 9.8 8.39995 9.8 7.89995C9.8 7.39995 9.3 7.19995 8.8 7.19995V7.19995ZM23.8 2.29995V2.19995H23.7C23.6 2.19995 14.5 3.39995 9.3 13.9C5.5 21.5 5.7 23.7999 6 23.7999C6.3 23.8999 9.4 17.3 12.7 14.6C17.9 13.5 19.3 11 19.3 11C19.3 11 17.8 11.2 17.2 11.2C16.4 11.2 15.8 11 15.5 10.9C16.8 9.69995 17.9 9.39995 19 9.19995C19.9 8.99995 20.8 8.79995 22 7.99995C24.2 6.39995 23.9 2.49995 23.8 2.29995V2.29995Z" />
        <path id="comment"
            d="M14.0459 2.24206L9.89795 2.23206H9.89595C5.52195 2.23206 2.09595 5.65906 2.09595 10.0341C2.09595 14.1321 5.28195 17.2401 9.56095 17.4041V21.2321C9.56095 21.3401 9.60495 21.5181 9.68095 21.6351C9.82295 21.8601 10.0649 21.9821 10.3129 21.9821C10.4509 21.9821 10.5899 21.9441 10.7149 21.8641C10.9789 21.6961 17.1879 17.7241 18.8029 16.3581C20.7049 14.7481 21.8429 12.3881 21.8459 10.0461V10.0291C21.8399 5.66206 18.4159 2.24206 14.0459 2.24106V2.24206ZM17.8329 15.2141C16.6989 16.1741 12.9709 18.6191 11.0609 19.8571V16.6701C11.0609 16.2561 10.7259 15.9201 10.3109 15.9201H9.91495C6.25495 15.9201 3.59695 13.4441 3.59695 10.0341C3.59695 6.50006 6.36495 3.73206 9.89695 3.73206L14.0439 3.74206H14.0459C17.5779 3.74206 20.3459 6.50806 20.3479 10.0381C20.3449 11.9481 19.4059 13.8821 17.8339 15.2141H17.8329Z" />
        <path id="retweet"
            d="M23.77 15.67C23.478 15.377 23.003 15.377 22.71 15.67L20.49 17.89V7.65004C20.49 5.58204 18.807 3.90004 16.74 3.90004H10.89C10.476 3.90004 10.14 4.23604 10.14 4.65004C10.14 5.06404 10.476 5.40004 10.89 5.40004H16.74C17.98 5.40004 18.99 6.41004 18.99 7.65004V17.89L16.77 15.67C16.477 15.377 16.002 15.377 15.71 15.67C15.418 15.963 15.416 16.438 15.71 16.73L19.21 20.23C19.355 20.377 19.547 20.45 19.74 20.45C19.933 20.45 20.123 20.378 20.27 20.23L23.77 16.73C24.064 16.438 24.064 15.963 23.77 15.67V15.67ZM13.11 18.95H7.25997C6.01997 18.95 5.00997 17.94 5.00997 16.7V6.46004L7.22997 8.68004C7.37797 8.82704 7.56997 8.90004 7.76197 8.90004C7.95397 8.90004 8.14597 8.82704 8.29197 8.68004C8.58497 8.38704 8.58497 7.91204 8.29197 7.62004L4.79197 4.12004C4.49897 3.82604 4.02397 3.82604 3.73197 4.12004L0.231975 7.62004C-0.0620254 7.91204 -0.0620254 8.38704 0.231975 8.68004C0.525975 8.97304 0.998975 8.97304 1.29197 8.68004L3.51197 6.46004V16.7C3.51197 18.768 5.19497 20.45 7.26197 20.45H13.112C13.526 20.45 13.862 20.114 13.862 19.7C13.862 19.286 13.525 18.95 13.112 18.95H13.11Z" />
        <path id="like"
            d="M12 21.638H11.986C9.40295 21.59 1.94995 14.856 1.94995 8.478C1.94995 5.414 4.47495 2.724 7.35295 2.724C9.64295 2.724 11.183 4.304 11.999 5.454C12.813 4.306 14.353 2.724 16.644 2.724C19.524 2.724 22.048 5.414 22.048 8.479C22.048 14.855 14.594 21.589 12.011 21.636H12V21.638ZM7.35395 4.225C5.27395 4.225 3.45095 6.213 3.45095 8.48C3.45095 14.22 10.485 20.076 12.001 20.138C13.519 20.076 20.551 14.221 20.551 8.48C20.551 6.213 18.728 4.225 16.648 4.225C14.12 4.225 12.708 7.161 12.696 7.19C12.466 7.752 11.54 7.752 11.309 7.19C11.295 7.16 9.88395 4.225 7.35495 4.225H7.35395Z" />
        <g id="share">
            <path
                d="M17.53 7.46999L12.53 2.46999C12.237 2.17699 11.762 2.17699 11.47 2.46999L6.47001 7.46999C6.17601 7.76299 6.17601 8.23799 6.47001 8.52999C6.76401 8.82199 7.23701 8.82399 7.53001 8.52999L11.25 4.80999V15C11.25 15.414 11.586 15.75 12 15.75C12.414 15.75 12.75 15.414 12.75 15V4.80999L16.47 8.52999C16.616 8.67699 16.808 8.74999 17 8.74999C17.192 8.74999 17.384 8.67799 17.53 8.52999C17.823 8.23699 17.823 7.76299 17.53 7.46999Z" />
            <path
                d="M19.708 21.944H4.292C3.028 21.944 2 20.916 2 19.652V14C2 13.586 2.336 13.25 2.75 13.25C3.164 13.25 3.5 13.586 3.5 14V19.652C3.5 20.089 3.855 20.444 4.292 20.444H19.708C20.145 20.444 20.5 20.089 20.5 19.652V14C20.5 13.586 20.836 13.25 21.25 13.25C21.664 13.25 22 13.586 22 14V19.652C22 20.916 20.972 21.944 19.708 21.944Z" />
        </g>
        <path id="back"
            d="M20 11H7.41399L11.707 6.707C12.097 6.317 12.097 5.684 11.707 5.293C11.317 4.902 10.684 4.903 10.293 5.293L4.29299 11.293C3.90299 11.683 3.90299 12.316 4.29299 12.707L10.293 18.707C10.488 18.902 10.743 19 11 19C11.257 19 11.512 18.902 11.707 18.707C12.097 18.317 12.097 17.684 11.707 17.293L7.41399 13H20C20.553 13 21 12.553 21 12C21 11.447 20.553 11 20 11Z" />
        <path id="logo" d="M7.54789 21.4782C16.605 21.4782 21.5578 13.985 21.5578 7.48756C21.5578 7.27467 21.5534 7.06291 21.5438 6.85196C22.5075 6.15563 23.3392 5.29338 24 4.30566C23.1178 4.69733 22.1682 4.96089 21.1724 5.07976C22.189 4.47101 22.9694 3.50799 23.3376 2.35999C22.371 2.93263 21.3135 3.33627 20.2108 3.55351C19.3123 2.59781 18.0331 2 16.6166 2C13.8974 2 11.6922 4.20207 11.6922 6.91662C11.6922 7.3025 11.7355 7.67785 11.82 8.03775C7.72741 7.83227 4.09859 5.87558 1.67025 2.90029C1.23286 3.65067 1.0028 4.50354 1.00357 5.37179C1.00357 7.07779 1.8728 8.58385 3.19473 9.46492C2.4128 9.44109 1.64802 9.23017 0.96467 8.8499C0.963862 8.87057 0.963862 8.89068 0.963862 8.91272C0.963862 11.2942 2.66125 13.2824 4.91434 13.733C4.49117 13.8481 4.05452 13.9063 3.61593 13.9061C3.2991 13.9061 2.99049 13.8749 2.69057 13.8173C3.31738 15.7711 5.13509 17.1928 7.29025 17.2327C5.60503 18.5519 3.48192 19.3375 1.17455 19.3375C0.777581 19.3375 0.385449 19.315 0 19.2694C2.17924 20.6643 4.76697 21.4783 7.54805 21.4783"/>
        <path id="close" d="M13.414 12L19.207 6.207C19.597 5.817 19.597 5.184 19.207 4.793C18.817 4.402 18.184 4.403 17.793 4.793L12 10.586L6.207 4.793C5.817 4.403 5.184 4.403 4.793 4.793C4.402 5.183 4.403 5.816 4.793 6.207L10.586 12L4.793 17.793C4.403 18.183 4.403 18.816 4.793 19.207C4.988 19.402 5.243 19.5 5.5 19.5C5.757 19.5 6.012 19.402 6.207 19.207L12 13.414L17.793 19.207C17.988 19.402 18.243 19.5 18.5 19.5C18.757 19.5 19.012 19.402 19.207 19.207C19.597 18.817 19.597 18.184 19.207 17.793L13.414 12Z" />
    </defs>
</svg>