<?xml version="1.0" encoding="utf-8"?>
<!-- Generator: Adobe Illustrator 23.0.2, SVG Export Plug-In . SVG Version: 6.00 Build 0)  -->
<svg version="1.1" id="Calque_1" xmlns="http://www.w3.org/2000/svg" xmlns:xlink="http://www.w3.org/1999/xlink" x="0px" y="0px"
	 viewBox="0 0 24 24" style="enable-background:new 0 0 24 24;" xml:space="preserve">
<path d="M21.8,10L21.8,10c0,2.4-1.1,4.7-3,6.3c-1.6,1.4-7.8,5.3-8.1,5.5c-0.1,0.1-0.3,0.1-0.4,0.1c-0.3,0-0.5-0.1-0.6-0.3
	c-0.1-0.1-0.1-0.3-0.1-0.4v-3.8c-4.3-0.2-7.5-3.3-7.5-7.4c0-2.2,0.9-4.1,2.3-5.5c1.4-1.4,3.4-2.3,5.5-2.3l4.1,0
	C18.4,2.2,21.8,5.7,21.8,10z"/>
</svg>
