<?xml version="1.0" encoding="utf-8"?>
<!-- Generator: Adobe Illustrator 23.0.2, SVG Export Plug-In . SVG Version: 6.00 Build 0)  -->
<svg version="1.1" id="Calque_1" xmlns="http://www.w3.org/2000/svg" xmlns:xlink="http://www.w3.org/1999/xlink" x="0px" y="0px"
	 viewBox="0 0 24 24" style="enable-background:new 0 0 24 24;" xml:space="preserve">
<path d="M19.8,2H4.3C3,2,2,3,2,4.3v15.5C2,21,3,22,4.3,22h15.5c1.2,0,2.3-1,2.3-2.3V4.3C22,3,21,2,19.8,2z M7,15.4h5
	c0.4,0,0.8,0.3,0.8,0.8c0,0.4-0.3,0.8-0.8,0.8H7c-0.4,0-0.8-0.3-0.8-0.8C6.3,15.7,6.6,15.4,7,15.4z M6.3,12c0-0.4,0.3-0.8,0.8-0.8
	h10c0.4,0,0.8,0.3,0.8,0.8s-0.3,0.8-0.8,0.8H7C6.6,12.8,6.3,12.4,6.3,12z M17,8.6H7c-0.4,0-0.8-0.3-0.8-0.8c0-0.4,0.3-0.8,0.8-0.8
	h10c0.4,0,0.8,0.3,0.8,0.8C17.8,8.3,17.4,8.6,17,8.6z"/>
<path d="M12,15.4H7c-0.4,0-0.8,0.3-0.8,0.8c0,0.4,0.3,0.8,0.8,0.8h5c0.4,0,0.8-0.3,0.8-0.8C12.8,15.7,12.4,15.4,12,15.4z M17,11.3H7
	c-0.4,0-0.8,0.3-0.8,0.8s0.3,0.8,0.8,0.8h10c0.4,0,0.8-0.3,0.8-0.8S17.4,11.3,17,11.3z M17,7.1H7c-0.4,0-0.8,0.3-0.8,0.8
	c0,0.4,0.3,0.8,0.8,0.8h10c0.4,0,0.8-0.3,0.8-0.8C17.8,7.5,17.4,7.1,17,7.1z"/>
</svg>
