<?xml version="1.0" encoding="utf-8"?>
<!-- Generator: Adobe Illustrator 23.0.2, SVG Export Plug-In . SVG Version: 6.00 Build 0)  -->
<svg version="1.1" id="Calque_1" xmlns="http://www.w3.org/2000/svg" xmlns:xlink="http://www.w3.org/1999/xlink" x="0px" y="0px"
	 viewBox="0 0 18 21" style="enable-background:new 0 0 18 21;" xml:space="preserve">
<path d="M16.9,20.2c-0.4,0.5-1,0.8-1.7,0.8H2.8c-0.7,0-1.3-0.3-1.7-0.8c-0.4-0.5-0.6-1.3-0.4-1.9c0.9-3.5,4.3-6,8.3-6s7.4,2.5,8.3,6
	C17.5,18.9,17.3,19.6,16.9,20.2z"/>
<path d="M12.8,9.6c-1,1.1-2.5,1.3-3.8,1.3c-1.4,0-2.9-0.2-3.8-1.3C4.3,8.6,4.1,7.2,4.3,5.2C4.7,2.3,6.5,0.7,9,0.7s4.3,1.7,4.7,4.5
	C13.9,7.2,13.7,8.6,12.8,9.6z"/>
</svg>
