<svg width="24" height="24" viewBox="0 0 24 24" xmlns="http://www.w3.org/2000/svg">
    <style>
        path {
            fill: #000;
        }

        @media (prefers-color-scheme: dark) {
            path {
                fill: #1da1f2;
            }
        }
    </style>
    <path
        d="M7.54789 21.4782C16.605 21.4782 21.5578 13.985 21.5578 7.48756C21.5578 7.27467 21.5534 7.06291 21.5438 6.85196C22.5075 6.15563 23.3392 5.29338 24 4.30566C23.1178 4.69733 22.1682 4.96089 21.1724 5.07976C22.189 4.47101 22.9694 3.50799 23.3376 2.35999C22.371 2.93263 21.3135 3.33627 20.2108 3.55351C19.3123 2.59781 18.0331 2 16.6166 2C13.8974 2 11.6922 4.20207 11.6922 6.91662C11.6922 7.3025 11.7355 7.67785 11.82 8.03775C7.72741 7.83227 4.09859 5.87558 1.67025 2.90029C1.23286 3.65067 1.0028 4.50354 1.00357 5.37179C1.00357 7.07779 1.8728 8.58385 3.19473 9.46492C2.4128 9.44109 1.64802 9.23017 0.96467 8.8499C0.963862 8.87057 0.963862 8.89068 0.963862 8.91272C0.963862 11.2942 2.66125 13.2824 4.91434 13.733C4.49117 13.8481 4.05452 13.9063 3.61593 13.9061C3.2991 13.9061 2.99049 13.8749 2.69057 13.8173C3.31738 15.7711 5.13509 17.1928 7.29025 17.2327C5.60503 18.5519 3.48192 19.3375 1.17455 19.3375C0.777581 19.3375 0.385449 19.315 0 19.2694C2.17924 20.6643 4.76697 21.4783 7.54805 21.4783" />
</svg>